<svg xmlns="http://www.w3.org/2000/svg" viewBox="0 0 32 32">
  <rect width="32" height="32" rx="6" fill="#111111"/>

  <!-- Outer flame -->
  <path
    d="M16 3
       C16 3 22 8 21 13
       C23 10 24 7 22 4
       C27 9 27 17 23 22
       C25 18 24 13 21 12
       C23 16 22 21 19 24
       C20 21 19 17 17 15
       C18 19 17 23 16 29
       C15 23 14 19 15 15
       C13 17 12 21 13 24
       C10 21 9 16 11 12
       C8 13 7 18 9 22
       C5 17 5 9 10 4
       C8 7 9 10 11 13
       C10 8 16 3 16 3Z"
    fill="#C8FF00"
  />

  <!-- Inner flame core (lighter highlight) -->
  <path
    d="M16 12
       C16 12 19 15 18 18
       C19 16 20 14 19 12
       C21 15 20 19 18 21
       C18 19 17 17 17 15
       C17 17 16 20 16 23
       C16 20 15 17 15 15
       C15 17 14 19 14 21
       C12 19 11 15 13 12
       C12 14 13 16 14 18
       C13 15 16 12 16 12Z"
    fill="#111111"
    opacity="0.35"
  />
</svg>
